<?xml version="1.0" encoding="utf-8" standalone="no"?>
<!DOCTYPE svg PUBLIC "-//W3C//DTD SVG 1.1//EN"
  "http://www.w3.org/Graphics/SVG/1.1/DTD/svg11.dtd">
<svg xmlns:xlink="http://www.w3.org/1999/xlink" width="785.52pt" height="314.784pt" viewBox="0 0 785.52 314.784" xmlns="http://www.w3.org/2000/svg" version="1.1">
 <metadata>
  <rdf:RDF xmlns:dc="http://purl.org/dc/elements/1.1/" xmlns:cc="http://creativecommons.org/ns#" xmlns:rdf="http://www.w3.org/1999/02/22-rdf-syntax-ns#">
   <cc:Work>
    <dc:type rdf:resource="http://purl.org/dc/dcmitype/StillImage"/>
    <dc:date>2026-08-12T22:56:18.669564</dc:date>
    <dc:format>image/svg+xml</dc:format>
    <dc:creator>
     <cc:Agent>
      <dc:title>Matplotlib v3.11.0, https://matplotlib.org/</dc:title>
     </cc:Agent>
    </dc:creator>
   </cc:Work>
  </rdf:RDF>
 </metadata>
 <defs>
  <style type="text/css">*{stroke-linejoin: round; stroke-linecap: butt}</style>
 </defs>
 <g id="figure_1">
  <g id="patch_1">
   <path d="M 0 314.784 
L 785.52 314.784 
L 785.52 0 
L 0 0 
z
" style="fill: #ffffff"/>
  </g>
  <g id="axes_1">
   <g id="patch_2">
    <path d="M 22.4712 126.966528 
L 114.6528 126.966528 
Q 128.7144 126.966528 128.7144 121.378176 
L 128.7144 75.429504 
Q 128.7144 69.841152 114.6528 69.841152 
L 22.4712 69.841152 
Q 8.4096 69.841152 8.4096 75.429504 
L 8.4096 121.378176 
Q 8.4096 126.966528 22.4712 126.966528 
z
" clip-path="url(#p7740327e04)" style="fill: #eef5fb; stroke: #12305a; stroke-width: 1.25; stroke-linejoin: miter"/>
   </g>
   <g id="patch_3">
    <path d="M 22.4712 226.315008 
L 114.6528 226.315008 
Q 128.7144 226.315008 128.7144 220.726656 
L 128.7144 174.777984 
Q 128.7144 169.189632 114.6528 169.189632 
L 22.4712 169.189632 
Q 8.4096 169.189632 8.4096 174.777984 
L 8.4096 220.726656 
Q 8.4096 226.315008 22.4712 226.315008 
z
" clip-path="url(#p7740327e04)" style="fill: #ecf8f6; stroke: #087c7e; stroke-width: 1.25; stroke-linejoin: miter"/>
   </g>
   <g id="patch_4">
    <path d="M 163.0872 182.850048 
L 247.4568 182.850048 
Q 261.5184 182.850048 261.5184 177.261696 
L 261.5184 128.208384 
Q 261.5184 122.620032 247.4568 122.620032 
L 163.0872 122.620032 
Q 149.0256 122.620032 149.0256 128.208384 
L 149.0256 177.261696 
Q 149.0256 182.850048 163.0872 182.850048 
z
" clip-path="url(#p7740327e04)" style="fill: #ffffff; stroke: #087c7e; stroke-width: 1.25; stroke-linejoin: miter"/>
   </g>
   <g id="patch_5">
    <path d="M 288.0792 182.850048 
L 364.6368 182.850048 
Q 378.6984 182.850048 378.6984 177.261696 
L 378.6984 128.208384 
Q 378.6984 122.620032 364.6368 122.620032 
L 288.0792 122.620032 
Q 274.0176 122.620032 274.0176 128.208384 
L 274.0176 177.261696 
Q 274.0176 182.850048 288.0792 182.850048 
z
" clip-path="url(#p7740327e04)" style="fill: #ffffff; stroke: #087c7e; stroke-width: 1.25; stroke-linejoin: miter"/>
   </g>
   <g id="patch_6">
    <path d="M 405.2592 198.373248 
L 505.2528 198.373248 
Q 519.3144 198.373248 519.3144 192.784896 
L 519.3144 112.685184 
Q 519.3144 107.096832 505.2528 107.096832 
L 405.2592 107.096832 
Q 391.1976 107.096832 391.1976 112.685184 
L 391.1976 192.784896 
Q 391.1976 198.373248 405.2592 198.373248 
z
" clip-path="url(#p7740327e04)" style="fill: #ffffff; stroke: #12305a; stroke-width: 1.25; stroke-linejoin: miter"/>
   </g>
   <g id="patch_7">
    <path d="M 545.8752 182.850048 
L 622.4328 182.850048 
Q 636.4944 182.850048 636.4944 177.261696 
L 636.4944 128.208384 
Q 636.4944 122.620032 622.4328 122.620032 
L 545.8752 122.620032 
Q 531.8136 122.620032 531.8136 128.208384 
L 531.8136 177.261696 
Q 531.8136 182.850048 545.8752 182.850048 
z
" clip-path="url(#p7740327e04)" style="fill: #ffffff; stroke: #087c7e; stroke-width: 1.25; stroke-linejoin: miter"/>
   </g>
   <g id="patch_8">
    <path d="M 663.0552 182.850048 
L 716.1768 182.850048 
Q 730.2384 182.850048 730.2384 177.261696 
L 730.2384 128.208384 
Q 730.2384 122.620032 716.1768 122.620032 
L 663.0552 122.620032 
Q 648.9936 122.620032 648.9936 128.208384 
L 648.9936 177.261696 
Q 648.9936 182.850048 663.0552 182.850048 
z
" clip-path="url(#p7740327e04)" style="fill: #ffffff; stroke: #12305a; stroke-width: 1.25; stroke-linejoin: miter"/>
   </g>
   <g id="patch_9">
    <path d="M 741.1752 182.850048 
L 770.8608 182.850048 
Q 784.9224 182.850048 784.9224 177.261696 
L 784.9224 128.208384 
Q 784.9224 122.620032 770.8608 122.620032 
L 741.1752 122.620032 
Q 727.1136 122.620032 727.1136 128.208384 
L 727.1136 177.261696 
Q 727.1136 182.850048 741.1752 182.850048 
z
" clip-path="url(#p7740327e04)" style="fill: #fff4ea; stroke: #d95f02; stroke-width: 1.25; stroke-linejoin: miter"/>
   </g>
   <g id="patch_10">
    <path d="M 120.267389 99.583239 
Q 138.869372 123.240162 156.676618 145.886383 
" clip-path="url(#p7740327e04)" style="fill: none; stroke: #5e6670; stroke-width: 1.15; stroke-linecap: round"/>
    <path d="M 155.77632 141.505805 
L 156.676618 145.886383 
L 152.631977 143.978274 
z
" clip-path="url(#p7740327e04)" style="fill: #5e6670; stroke: #5e6670; stroke-width: 1.15; stroke-linecap: round"/>
   </g>
   <g id="patch_11">
    <path d="M 120.424735 196.717693 
Q 138.868837 179.125589 156.38255 162.420897 
" clip-path="url(#p7740327e04)" style="fill: none; stroke: #5e6670; stroke-width: 1.15; stroke-linecap: round"/>
    <path d="M 152.107668 163.734436 
L 156.38255 162.420897 
L 154.868451 166.628926 
z
" clip-path="url(#p7740327e04)" style="fill: #5e6670; stroke: #5e6670; stroke-width: 1.15; stroke-linecap: round"/>
   </g>
   <g id="patch_12">
    <path d="M 253.64308 152.73504 
Q 267.767644 152.73504 280.606468 152.73504 
" clip-path="url(#p7740327e04)" style="fill: none; stroke: #5e6670; stroke-width: 1.15; stroke-linecap: round"/>
    <path d="M 276.606468 150.73504 
L 280.606468 152.73504 
L 276.606468 154.73504 
z
" clip-path="url(#p7740327e04)" style="fill: #5e6670; stroke: #5e6670; stroke-width: 1.15; stroke-linecap: round"/>
   </g>
   <g id="patch_13">
    <path d="M 370.82308 152.73504 
Q 384.947644 152.73504 397.786468 152.73504 
" clip-path="url(#p7740327e04)" style="fill: none; stroke: #5e6670; stroke-width: 1.15; stroke-linecap: round"/>
    <path d="M 393.786468 150.73504 
L 397.786468 152.73504 
L 393.786468 154.73504 
z
" clip-path="url(#p7740327e04)" style="fill: #5e6670; stroke: #5e6670; stroke-width: 1.15; stroke-linecap: round"/>
   </g>
   <g id="patch_14">
    <path d="M 511.43908 152.73504 
Q 525.563644 152.73504 538.402468 152.73504 
" clip-path="url(#p7740327e04)" style="fill: none; stroke: #5e6670; stroke-width: 1.15; stroke-linecap: round"/>
    <path d="M 534.402468 150.73504 
L 538.402468 152.73504 
L 534.402468 154.73504 
z
" clip-path="url(#p7740327e04)" style="fill: #5e6670; stroke: #5e6670; stroke-width: 1.15; stroke-linecap: round"/>
   </g>
   <g id="patch_15">
    <path d="M 628.61908 152.73504 
Q 642.743644 152.73504 655.582468 152.73504 
" clip-path="url(#p7740327e04)" style="fill: none; stroke: #5e6670; stroke-width: 1.15; stroke-linecap: round"/>
    <path d="M 651.582468 150.73504 
L 655.582468 152.73504 
L 651.582468 154.73504 
z
" clip-path="url(#p7740327e04)" style="fill: #5e6670; stroke: #5e6670; stroke-width: 1.15; stroke-linecap: round"/>
   </g>
   <g id="patch_16">
    <path d="M 722.36308 152.73504 
Q 728.675499 152.73504 733.702178 152.73504 
" clip-path="url(#p7740327e04)" style="fill: none; stroke: #5e6670; stroke-width: 1.15; stroke-linecap: round"/>
    <path d="M 729.702178 150.73504 
L 733.702178 152.73504 
L 729.702178 154.73504 
z
" clip-path="url(#p7740327e04)" style="fill: #5e6670; stroke: #5e6670; stroke-width: 1.15; stroke-linecap: round"/>
   </g>
   <g id="patch_17">
    <path d="M 186.5232 297.721728 
L 598.9968 297.721728 
Q 613.0584 297.721728 613.0584 292.133376 
L 613.0584 264.812544 
Q 613.0584 259.224192 598.9968 259.224192 
L 186.5232 259.224192 
Q 172.4616 259.224192 172.4616 264.812544 
L 172.4616 292.133376 
Q 172.4616 297.721728 186.5232 297.721728 
z
" clip-path="url(#p7740327e04)" style="fill: #ffffff; stroke: #087c7e; stroke-width: 1.25; stroke-linejoin: miter"/>
   </g>
   <g id="text_1">
    <text style="font-weight: 600; font-size: 8.5px; font-family: 'DejaVu Sans'; fill: #12305a" transform="translate(39.175242 95.511018)">Multi-region</text>
    <text style="font-weight: 600; font-size: 8.5px; font-family: 'DejaVu Sans'; fill: #12305a" transform="translate(58.275008 105.713342)">load</text>
   </g>
   <g id="text_2">
    <text style="font-weight: 600; font-size: 8.5px; font-family: 'DejaVu Sans'; fill: #087c7e" transform="translate(47.203758 194.859498)">Calendar</text>
    <text style="font-weight: 600; font-size: 8.5px; font-family: 'DejaVu Sans'; fill: #087c7e" transform="translate(48.397742 205.061822)">features</text>
   </g>
   <g id="text_3">
    <text style="font-weight: 600; font-size: 8.5px; font-family: 'DejaVu Sans'; fill: #087c7e" transform="translate(188.297234 144.741056)">Shared</text>
    <text style="font-weight: 600; font-size: 8.5px; font-family: 'DejaVu Sans'; fill: #087c7e" transform="translate(183.546531 154.94338)">temporal</text>
    <text style="font-weight: 600; font-size: 8.5px; font-family: 'DejaVu Sans'; fill: #087c7e" transform="translate(185.903953 165.145704)">encoder</text>
   </g>
   <g id="text_4">
    <text style="font-weight: 600; font-size: 8.5px; font-family: 'DejaVu Sans'; fill: #087c7e" transform="translate(311.449797 149.842218)">Series</text>
    <text style="font-weight: 600; font-size: 8.5px; font-family: 'DejaVu Sans'; fill: #087c7e" transform="translate(296.983859 160.044542)">embeddings</text>
   </g>
   <g id="text_5">
    <text style="font-weight: 600; font-size: 8.5px; font-family: 'DejaVu Sans'; fill: #12305a" transform="translate(425.921703 149.842218)">Cross-series</text>
    <text style="font-weight: 600; font-size: 8.5px; font-family: 'DejaVu Sans'; fill: #12305a" transform="translate(432.983344 160.044542)">attention</text>
   </g>
   <g id="text_6">
    <text style="font-size: 6.8px; font-family: 'DejaVu Sans'; text-anchor: middle; fill: #5e6670" x="455.256" y="184.631558" transform="rotate(-0 455.256 184.631558)">Poincaré | Euclidean | equal</text>
   </g>
   <g id="text_7">
    <text style="font-weight: 600; font-size: 8.5px; font-family: 'DejaVu Sans'; fill: #087c7e" transform="translate(565.402867 149.841886)">Context</text>
    <text style="font-weight: 600; font-size: 8.5px; font-family: 'DejaVu Sans'; fill: #087c7e" transform="translate(569.348062 160.04421)">fusion</text>
   </g>
   <g id="text_8">
    <text style="font-weight: 600; font-size: 8.5px; font-family: 'DejaVu Sans'; fill: #12305a" transform="translate(669.038031 149.841886)">Forecast</text>
    <text style="font-weight: 600; font-size: 8.5px; font-family: 'DejaVu Sans'; fill: #12305a" transform="translate(677.79768 160.04421)">head</text>
   </g>
   <g id="text_9">
    <text style="font-weight: 600; font-size: 7.3px; font-family: 'DejaVu Sans'; text-anchor: middle; fill: #d95f02" x="756.018" y="154.631614" transform="rotate(-0 756.018 154.631614)">1 h / 24 h</text>
   </g>
   <g id="text_10">
    <text style="font-weight: 600; font-size: 8.2px; font-family: 'DejaVu Sans'; fill: #087c7e" transform="translate(317.144469 275.682237)">OPSD  •  SimBench  •  Ausgrid  •</text>
    <text style="font-weight: 600; font-size: 8.2px; font-family: 'DejaVu Sans'; fill: #087c7e" transform="translate(324.900516 285.52448)">dataset-specific seeded tests</text>
   </g>
  </g>
 </g>
 <defs>
  <clipPath id="p7740327e04">
   <rect x="2.16" y="2.16" width="781.2" height="310.464"/>
  </clipPath>
 </defs>
</svg>
