<?xml version="1.0" encoding="utf-8" standalone="no"?>
<!DOCTYPE svg PUBLIC "-//W3C//DTD SVG 1.1//EN"
  "http://www.w3.org/Graphics/SVG/1.1/DTD/svg11.dtd">
<svg xmlns:xlink="http://www.w3.org/1999/xlink" width="1047px" height="420px" viewBox="0 0 785.52 314.784" xmlns="http://www.w3.org/2000/svg" version="1.1">
 <metadata>
  <rdf:RDF xmlns:dc="http://purl.org/dc/elements/1.1/" xmlns:cc="http://creativecommons.org/ns#" xmlns:rdf="http://www.w3.org/1999/02/22-rdf-syntax-ns#">
   <cc:Work>
    <dc:type rdf:resource="http://purl.org/dc/dcmitype/StillImage"/>
    <dc:date>2026-08-12T22:56:19.485528</dc:date>
    <dc:format>image/svg+xml</dc:format>
    <dc:creator>
     <cc:Agent>
      <dc:title>Matplotlib v3.11.0, https://matplotlib.org/</dc:title>
     </cc:Agent>
    </dc:creator>
   </cc:Work>
  </rdf:RDF>
 </metadata>
 <defs>
  <style type="text/css">*{stroke-linejoin: round; stroke-linecap: butt}</style>
 </defs>
 <g id="figure_1">
  <g id="patch_1">
   <path d="M 0 314.784 
L 785.52 314.784 
L 785.52 0 
L 0 0 
z
" style="fill: #ffffff"/>
  </g>
  <g id="axes_1">
   <g id="patch_2">
    <path d="M 14.6592 123.861888 
L 106.8408 123.861888 
Q 120.9024 123.861888 120.9024 118.273536 
L 120.9024 72.324864 
Q 120.9024 66.736512 106.8408 66.736512 
L 14.6592 66.736512 
Q 0.5976 66.736512 0.5976 72.324864 
L 0.5976 118.273536 
Q 0.5976 123.861888 14.6592 123.861888 
z
" clip-path="url(#p05a26d066d)" style="fill: #eef5fb; stroke: #12305a; stroke-width: 1.25; stroke-linejoin: miter"/>
   </g>
   <g id="patch_3">
    <path d="M 14.6592 226.315008 
L 106.8408 226.315008 
Q 120.9024 226.315008 120.9024 220.726656 
L 120.9024 174.777984 
Q 120.9024 169.189632 106.8408 169.189632 
L 14.6592 169.189632 
Q 0.5976 169.189632 0.5976 174.777984 
L 0.5976 220.726656 
Q 0.5976 226.315008 14.6592 226.315008 
z
" clip-path="url(#p05a26d066d)" style="fill: #ecf8f6; stroke: #087c7e; stroke-width: 1.25; stroke-linejoin: miter"/>
   </g>
   <g id="patch_4">
    <path d="M 163.0872 182.850048 
L 247.4568 182.850048 
Q 261.5184 182.850048 261.5184 177.261696 
L 261.5184 118.894464 
Q 261.5184 113.306112 247.4568 113.306112 
L 163.0872 113.306112 
Q 149.0256 113.306112 149.0256 118.894464 
L 149.0256 177.261696 
Q 149.0256 182.850048 163.0872 182.850048 
z
" clip-path="url(#p05a26d066d)" style="fill: #ffffff; stroke: #12305a; stroke-width: 1.25; stroke-linejoin: miter"/>
   </g>
   <g id="patch_5">
    <path d="M 288.0792 182.850048 
L 372.4488 182.850048 
Q 386.5104 182.850048 386.5104 177.261696 
L 386.5104 118.894464 
Q 386.5104 113.306112 372.4488 113.306112 
L 288.0792 113.306112 
Q 274.0176 113.306112 274.0176 118.894464 
L 274.0176 177.261696 
Q 274.0176 182.850048 288.0792 182.850048 
z
" clip-path="url(#p05a26d066d)" style="fill: #ffffff; stroke: #087c7e; stroke-width: 1.25; stroke-linejoin: miter"/>
   </g>
   <g id="patch_6">
    <path d="M 413.0712 182.850048 
L 497.4408 182.850048 
Q 511.5024 182.850048 511.5024 177.261696 
L 511.5024 118.894464 
Q 511.5024 113.306112 497.4408 113.306112 
L 413.0712 113.306112 
Q 399.0096 113.306112 399.0096 118.894464 
L 399.0096 177.261696 
Q 399.0096 182.850048 413.0712 182.850048 
z
" clip-path="url(#p05a26d066d)" style="fill: #ffffff; stroke: #5e6670; stroke-width: 1.25; stroke-linejoin: miter"/>
   </g>
   <g id="patch_7">
    <path d="M 538.0632 182.850048 
L 622.4328 182.850048 
Q 636.4944 182.850048 636.4944 177.261696 
L 636.4944 118.894464 
Q 636.4944 113.306112 622.4328 113.306112 
L 538.0632 113.306112 
Q 524.0016 113.306112 524.0016 118.894464 
L 524.0016 177.261696 
Q 524.0016 182.850048 538.0632 182.850048 
z
" clip-path="url(#p05a26d066d)" style="fill: #ffffff; stroke: #12305a; stroke-width: 1.25; stroke-linejoin: miter"/>
   </g>
   <g id="patch_8">
    <path d="M 663.0552 182.850048 
L 747.4248 182.850048 
Q 761.4864 182.850048 761.4864 177.261696 
L 761.4864 118.894464 
Q 761.4864 113.306112 747.4248 113.306112 
L 663.0552 113.306112 
Q 648.9936 113.306112 648.9936 118.894464 
L 648.9936 177.261696 
Q 648.9936 182.850048 663.0552 182.850048 
z
" clip-path="url(#p05a26d066d)" style="fill: #ffffff; stroke: #d95f02; stroke-width: 1.25; stroke-linejoin: miter"/>
   </g>
   <g id="patch_9">
    <path d="M 112.589372 96.353724 
Q 134.962037 118.582049 156.422609 139.904167 
" clip-path="url(#p05a26d066d)" style="fill: none; stroke: #5e6670; stroke-width: 1.15; stroke-linecap: round"/>
    <path d="M 154.994673 135.666125 
L 156.422609 139.904167 
L 152.175414 138.503691 
z
" clip-path="url(#p05a26d066d)" style="fill: #5e6670; stroke: #5e6670; stroke-width: 1.15; stroke-linecap: round"/>
   </g>
   <g id="patch_10">
    <path d="M 112.663753 196.774351 
Q 134.963803 177.57233 156.289542 159.209264 
" clip-path="url(#p05a26d066d)" style="fill: none; stroke: #5e6670; stroke-width: 1.15; stroke-linecap: round"/>
    <path d="M 151.953398 160.303729 
L 156.289542 159.209264 
L 154.563428 163.334858 
z
" clip-path="url(#p05a26d066d)" style="fill: #5e6670; stroke: #5e6670; stroke-width: 1.15; stroke-linecap: round"/>
   </g>
   <g id="patch_11">
    <path d="M 253.64308 148.07808 
Q 267.767644 148.07808 280.606468 148.07808 
" clip-path="url(#p05a26d066d)" style="fill: none; stroke: #5e6670; stroke-width: 1.15; stroke-linecap: round"/>
    <path d="M 276.606468 146.07808 
L 280.606468 148.07808 
L 276.606468 150.07808 
z
" clip-path="url(#p05a26d066d)" style="fill: #5e6670; stroke: #5e6670; stroke-width: 1.15; stroke-linecap: round"/>
   </g>
   <g id="patch_12">
    <path d="M 378.63508 148.07808 
Q 392.759644 148.07808 405.598468 148.07808 
" clip-path="url(#p05a26d066d)" style="fill: none; stroke: #5e6670; stroke-width: 1.15; stroke-linecap: round"/>
    <path d="M 401.598468 146.07808 
L 405.598468 148.07808 
L 401.598468 150.07808 
z
" clip-path="url(#p05a26d066d)" style="fill: #5e6670; stroke: #5e6670; stroke-width: 1.15; stroke-linecap: round"/>
   </g>
   <g id="patch_13">
    <path d="M 503.62708 148.07808 
Q 517.751644 148.07808 530.590468 148.07808 
" clip-path="url(#p05a26d066d)" style="fill: none; stroke: #5e6670; stroke-width: 1.15; stroke-linecap: round"/>
    <path d="M 526.590468 146.07808 
L 530.590468 148.07808 
L 526.590468 150.07808 
z
" clip-path="url(#p05a26d066d)" style="fill: #5e6670; stroke: #5e6670; stroke-width: 1.15; stroke-linecap: round"/>
   </g>
   <g id="patch_14">
    <path d="M 628.61908 148.07808 
Q 642.743644 148.07808 655.582468 148.07808 
" clip-path="url(#p05a26d066d)" style="fill: none; stroke: #5e6670; stroke-width: 1.15; stroke-linecap: round"/>
    <path d="M 651.582468 146.07808 
L 655.582468 148.07808 
L 651.582468 150.07808 
z
" clip-path="url(#p05a26d066d)" style="fill: #5e6670; stroke: #5e6670; stroke-width: 1.15; stroke-linecap: round"/>
   </g>
   <g id="patch_15">
    <path d="M 631.8072 269.779968 
L 692.7408 269.779968 
Q 706.8024 269.779968 706.8024 264.191616 
L 706.8024 224.452224 
Q 706.8024 218.863872 692.7408 218.863872 
L 631.8072 218.863872 
Q 617.7456 218.863872 617.7456 224.452224 
L 617.7456 264.191616 
Q 617.7456 269.779968 631.8072 269.779968 
z
" clip-path="url(#p05a26d066d)" style="fill: #fff4ea; stroke: #d95f02; stroke-width: 1.25; stroke-linejoin: miter"/>
   </g>
   <g id="patch_16">
    <path d="M 709.9272 269.779968 
L 770.8608 269.779968 
Q 784.9224 269.779968 784.9224 264.191616 
L 784.9224 224.452224 
Q 784.9224 218.863872 770.8608 218.863872 
L 709.9272 218.863872 
Q 695.8656 218.863872 695.8656 224.452224 
L 695.8656 264.191616 
Q 695.8656 269.779968 709.9272 269.779968 
z
" clip-path="url(#p05a26d066d)" style="fill: #ecf8f6; stroke: #087c7e; stroke-width: 1.25; stroke-linejoin: miter"/>
   </g>
   <g id="patch_17">
    <path d="M 704.183158 180.193595 
Q 683.756792 200.85717 664.234317 220.606358 
" clip-path="url(#p05a26d066d)" style="fill: none; stroke: #d95f02; stroke-width: 1.15; stroke-linecap: round"/>
    <path d="M 668.468723 219.167676 
L 664.234317 220.606358 
L 665.624015 216.355624 
z
" clip-path="url(#p05a26d066d)" style="fill: #d95f02; stroke: #d95f02; stroke-width: 1.15; stroke-linecap: round"/>
   </g>
   <g id="patch_18">
    <path d="M 729.065789 180.570305 
Q 734.534569 200.855361 739.668667 219.899 
" clip-path="url(#p05a26d066d)" style="fill: none; stroke: #087c7e; stroke-width: 1.15; stroke-linecap: round"/>
    <path d="M 740.55851 215.516286 
L 739.668667 219.899 
L 736.696402 216.557497 
z
" clip-path="url(#p05a26d066d)" style="fill: #087c7e; stroke: #087c7e; stroke-width: 1.15; stroke-linecap: round"/>
   </g>
   <g id="patch_19">
    <path d="M 578.865497 179.698262 
Q 457.466144 229.82709 332.927411 192.347398 
" clip-path="url(#p05a26d066d)" style="fill: none; stroke: #12305a; stroke-width: 1.15; stroke-linecap: round"/>
    <path d="M 336.181354 195.415272 
L 332.927411 192.347398 
L 337.334077 191.584968 
z
" clip-path="url(#p05a26d066d)" style="fill: #12305a; stroke: #12305a; stroke-width: 1.15; stroke-linecap: round"/>
   </g>
   <g id="text_1">
    <text style="font-weight: 600; font-size: 8.5px; font-family: 'DejaVu Sans'; fill: #12305a" transform="translate(50.666875 92.406378)">Grid</text>
    <text style="font-weight: 600; font-size: 8.5px; font-family: 'DejaVu Sans'; fill: #12305a" transform="translate(34.484336 102.608702)">candidates</text>
   </g>
   <g id="text_2">
    <text style="font-weight: 600; font-size: 8.5px; font-family: 'DejaVu Sans'; fill: #087c7e" transform="translate(32.591758 194.859498)">Uncertainty</text>
    <text style="font-weight: 600; font-size: 8.5px; font-family: 'DejaVu Sans'; fill: #087c7e" transform="translate(37.922852 205.061822)">scenarios</text>
   </g>
   <g id="text_3">
    <text style="font-weight: 600; font-size: 7.8px; font-family: 'DejaVu Sans'; fill: #12305a" transform="translate(156.194766 140.742728)">Population-dependent</text>
    <text style="font-weight: 600; font-size: 7.8px; font-family: 'DejaVu Sans'; fill: #12305a" transform="translate(188.240578 150.104252)">worst-K</text>
    <text style="font-weight: 600; font-size: 7.8px; font-family: 'DejaVu Sans'; fill: #12305a" transform="translate(183.744 159.466385)">screening</text>
   </g>
   <g id="text_4">
    <text style="font-weight: 600; font-size: 7.8px; font-family: 'DejaVu Sans'; fill: #087c7e" transform="translate(308.037656 145.423795)">Hybrid GA</text>
    <text style="font-weight: 600; font-size: 7.8px; font-family: 'DejaVu Sans'; fill: #087c7e" transform="translate(321.579797 154.785318)">/ DE</text>
   </g>
   <g id="text_5">
    <text style="font-weight: 600; font-size: 7.8px; font-family: 'DejaVu Sans'; fill: #5e6670" transform="translate(439.414688 145.42349)">Budget</text>
    <text style="font-weight: 600; font-size: 7.8px; font-family: 'DejaVu Sans'; fill: #5e6670" transform="translate(442.003922 154.785623)">repair</text>
   </g>
   <g id="text_6">
    <text style="font-weight: 600; font-size: 7.8px; font-family: 'DejaVu Sans'; fill: #12305a" transform="translate(542.158406 145.42349)">Constraint-aware</text>
    <text style="font-weight: 600; font-size: 7.8px; font-family: 'DejaVu Sans'; fill: #12305a" transform="translate(560.330578 154.785623)">selection</text>
   </g>
   <g id="text_7">
    <text style="font-weight: 600; font-size: 7.8px; font-family: 'DejaVu Sans'; fill: #d95f02" transform="translate(690.742359 145.423185)">Pareto</text>
    <text style="font-weight: 600; font-size: 7.8px; font-family: 'DejaVu Sans'; fill: #d95f02" transform="translate(689.072062 154.785318)">archive</text>
   </g>
   <g id="text_8">
    <text style="font-weight: 600; font-size: 7.5px; font-family: 'DejaVu Sans'; fill: #d95f02" transform="translate(632.133961 241.76943)">Unseen-stress</text>
    <text style="font-weight: 600; font-size: 7.5px; font-family: 'DejaVu Sans'; fill: #d95f02" transform="translate(653.913844 250.770895)">test</text>
   </g>
   <g id="text_9">
    <text style="font-weight: 600; font-size: 7.0px; font-family: 'DejaVu Sans'; fill: #087c7e" transform="translate(712.5 241.769137)">Fixed-mapping</text>
    <text style="font-weight: 600; font-size: 7.0px; font-family: 'DejaVu Sans'; fill: #087c7e" transform="translate(724.5 250.771188)">AC check</text>
   </g>
  </g>
 </g>
 <defs>
  <clipPath id="p05a26d066d">
    <rect x="0" y="0" width="785.52" height="314.784"/>
  </clipPath>
 </defs>
</svg>
