<?xml version="1.0" encoding="utf-8" standalone="no"?>
<!DOCTYPE svg PUBLIC "-//W3C//DTD SVG 1.1//EN"
  "http://www.w3.org/Graphics/SVG/1.1/DTD/svg11.dtd">
<svg xmlns:xlink="http://www.w3.org/1999/xlink" width="785.52pt" height="314.784pt" viewBox="0 0 785.52 314.784" xmlns="http://www.w3.org/2000/svg" version="1.1">
 <metadata>
  <rdf:RDF xmlns:dc="http://purl.org/dc/elements/1.1/" xmlns:cc="http://creativecommons.org/ns#" xmlns:rdf="http://www.w3.org/1999/02/22-rdf-syntax-ns#">
   <cc:Work>
    <dc:type rdf:resource="http://purl.org/dc/dcmitype/StillImage"/>
    <dc:date>2026-08-12T22:56:19.103182</dc:date>
    <dc:format>image/svg+xml</dc:format>
    <dc:creator>
     <cc:Agent>
      <dc:title>Matplotlib v3.11.0, https://matplotlib.org/</dc:title>
     </cc:Agent>
    </dc:creator>
   </cc:Work>
  </rdf:RDF>
 </metadata>
 <defs>
  <style type="text/css">*{stroke-linejoin: round; stroke-linecap: butt}</style>
 </defs>
 <g id="figure_1">
  <g id="patch_1">
   <path d="M 0 314.784 
L 785.52 314.784 
L 785.52 0 
L 0 0 
z
" style="fill: #ffffff"/>
  </g>
  <g id="axes_1">
   <g id="patch_2">
    <path d="M 18.5652 182.850048 
L 87.3108 182.850048 
Q 101.3724 182.850048 101.3724 177.261696 
L 101.3724 118.894464 
Q 101.3724 113.306112 87.3108 113.306112 
L 18.5652 113.306112 
Q 4.5036 113.306112 4.5036 118.894464 
L 4.5036 177.261696 
Q 4.5036 182.850048 18.5652 182.850048 
z
" clip-path="url(#p76ceee57b3)" style="fill: #ffffff; stroke: #12305a; stroke-width: 1.25; stroke-linejoin: miter"/>
   </g>
   <g id="patch_3">
    <path d="M 116.2152 182.850048 
L 184.9608 182.850048 
Q 199.0224 182.850048 199.0224 177.261696 
L 199.0224 118.894464 
Q 199.0224 113.306112 184.9608 113.306112 
L 116.2152 113.306112 
Q 102.1536 113.306112 102.1536 118.894464 
L 102.1536 177.261696 
Q 102.1536 182.850048 116.2152 182.850048 
z
" clip-path="url(#p76ceee57b3)" style="fill: #ffffff; stroke: #087c7e; stroke-width: 1.25; stroke-linejoin: miter"/>
   </g>
   <g id="patch_4">
    <path d="M 213.8652 182.850048 
L 282.6108 182.850048 
Q 296.6724 182.850048 296.6724 177.261696 
L 296.6724 118.894464 
Q 296.6724 113.306112 282.6108 113.306112 
L 213.8652 113.306112 
Q 199.8036 113.306112 199.8036 118.894464 
L 199.8036 177.261696 
Q 199.8036 182.850048 213.8652 182.850048 
z
" clip-path="url(#p76ceee57b3)" style="fill: #ffffff; stroke: #12305a; stroke-width: 1.25; stroke-linejoin: miter"/>
   </g>
   <g id="patch_5">
    <path d="M 311.5152 182.850048 
L 380.2608 182.850048 
Q 394.3224 182.850048 394.3224 177.261696 
L 394.3224 118.894464 
Q 394.3224 113.306112 380.2608 113.306112 
L 311.5152 113.306112 
Q 297.4536 113.306112 297.4536 118.894464 
L 297.4536 177.261696 
Q 297.4536 182.850048 311.5152 182.850048 
z
" clip-path="url(#p76ceee57b3)" style="fill: #ffffff; stroke: #12305a; stroke-width: 1.25; stroke-linejoin: miter"/>
   </g>
   <g id="patch_6">
    <path d="M 409.1652 182.850048 
L 477.9108 182.850048 
Q 491.9724 182.850048 491.9724 177.261696 
L 491.9724 118.894464 
Q 491.9724 113.306112 477.9108 113.306112 
L 409.1652 113.306112 
Q 395.1036 113.306112 395.1036 118.894464 
L 395.1036 177.261696 
Q 395.1036 182.850048 409.1652 182.850048 
z
" clip-path="url(#p76ceee57b3)" style="fill: #ffffff; stroke: #087c7e; stroke-width: 1.25; stroke-linejoin: miter"/>
   </g>
   <g id="patch_7">
    <path d="M 506.8152 182.850048 
L 575.5608 182.850048 
Q 589.6224 182.850048 589.6224 177.261696 
L 589.6224 118.894464 
Q 589.6224 113.306112 575.5608 113.306112 
L 506.8152 113.306112 
Q 492.7536 113.306112 492.7536 118.894464 
L 492.7536 177.261696 
Q 492.7536 182.850048 506.8152 182.850048 
z
" clip-path="url(#p76ceee57b3)" style="fill: #ffffff; stroke: #12305a; stroke-width: 1.25; stroke-linejoin: miter"/>
   </g>
   <g id="patch_8">
    <path d="M 604.4652 182.850048 
L 673.2108 182.850048 
Q 687.2724 182.850048 687.2724 177.261696 
L 687.2724 118.894464 
Q 687.2724 113.306112 673.2108 113.306112 
L 604.4652 113.306112 
Q 590.4036 113.306112 590.4036 118.894464 
L 590.4036 177.261696 
Q 590.4036 182.850048 604.4652 182.850048 
z
" clip-path="url(#p76ceee57b3)" style="fill: #ffffff; stroke: #087c7e; stroke-width: 1.25; stroke-linejoin: miter"/>
   </g>
   <g id="patch_9">
    <path d="M 702.1152 182.850048 
L 770.8608 182.850048 
Q 784.9224 182.850048 784.9224 177.261696 
L 784.9224 118.894464 
Q 784.9224 113.306112 770.8608 113.306112 
L 702.1152 113.306112 
Q 688.0536 113.306112 688.0536 118.894464 
L 688.0536 177.261696 
Q 688.0536 182.850048 702.1152 182.850048 
z
" clip-path="url(#p76ceee57b3)" style="fill: #fff4ea; stroke: #d95f02; stroke-width: 1.25; stroke-linejoin: miter"/>
   </g>
   <g id="patch_10">
    <path d="M 93.499941 148.07808 
Q 101.763535 148.07808 108.74139 148.07808 
" clip-path="url(#p76ceee57b3)" style="fill: none; stroke: #5e6670; stroke-width: 1.15; stroke-linecap: round"/>
    <path d="M 104.74139 146.07808 
L 108.74139 148.07808 
L 104.74139 150.07808 
z
" clip-path="url(#p76ceee57b3)" style="fill: #5e6670; stroke: #5e6670; stroke-width: 1.15; stroke-linecap: round"/>
   </g>
   <g id="patch_11">
    <path d="M 191.149941 148.07808 
Q 199.413535 148.07808 206.39139 148.07808 
" clip-path="url(#p76ceee57b3)" style="fill: none; stroke: #5e6670; stroke-width: 1.15; stroke-linecap: round"/>
    <path d="M 202.39139 146.07808 
L 206.39139 148.07808 
L 202.39139 150.07808 
z
" clip-path="url(#p76ceee57b3)" style="fill: #5e6670; stroke: #5e6670; stroke-width: 1.15; stroke-linecap: round"/>
   </g>
   <g id="patch_12">
    <path d="M 288.799941 148.07808 
Q 297.063535 148.07808 304.04139 148.07808 
" clip-path="url(#p76ceee57b3)" style="fill: none; stroke: #5e6670; stroke-width: 1.15; stroke-linecap: round"/>
    <path d="M 300.04139 146.07808 
L 304.04139 148.07808 
L 300.04139 150.07808 
z
" clip-path="url(#p76ceee57b3)" style="fill: #5e6670; stroke: #5e6670; stroke-width: 1.15; stroke-linecap: round"/>
   </g>
   <g id="patch_13">
    <path d="M 386.449941 148.07808 
Q 394.713535 148.07808 401.69139 148.07808 
" clip-path="url(#p76ceee57b3)" style="fill: none; stroke: #5e6670; stroke-width: 1.15; stroke-linecap: round"/>
    <path d="M 397.69139 146.07808 
L 401.69139 148.07808 
L 397.69139 150.07808 
z
" clip-path="url(#p76ceee57b3)" style="fill: #5e6670; stroke: #5e6670; stroke-width: 1.15; stroke-linecap: round"/>
   </g>
   <g id="patch_14">
    <path d="M 484.099941 148.07808 
Q 492.363535 148.07808 499.34139 148.07808 
" clip-path="url(#p76ceee57b3)" style="fill: none; stroke: #5e6670; stroke-width: 1.15; stroke-linecap: round"/>
    <path d="M 495.34139 146.07808 
L 499.34139 148.07808 
L 495.34139 150.07808 
z
" clip-path="url(#p76ceee57b3)" style="fill: #5e6670; stroke: #5e6670; stroke-width: 1.15; stroke-linecap: round"/>
   </g>
   <g id="patch_15">
    <path d="M 581.749941 148.07808 
Q 590.013535 148.07808 596.99139 148.07808 
" clip-path="url(#p76ceee57b3)" style="fill: none; stroke: #5e6670; stroke-width: 1.15; stroke-linecap: round"/>
    <path d="M 592.99139 146.07808 
L 596.99139 148.07808 
L 592.99139 150.07808 
z
" clip-path="url(#p76ceee57b3)" style="fill: #5e6670; stroke: #5e6670; stroke-width: 1.15; stroke-linecap: round"/>
   </g>
   <g id="patch_16">
    <path d="M 679.399941 148.07808 
Q 687.663535 148.07808 694.64139 148.07808 
" clip-path="url(#p76ceee57b3)" style="fill: none; stroke: #5e6670; stroke-width: 1.15; stroke-linecap: round"/>
    <path d="M 690.64139 146.07808 
L 694.64139 148.07808 
L 690.64139 150.07808 
z
" clip-path="url(#p76ceee57b3)" style="fill: #5e6670; stroke: #5e6670; stroke-width: 1.15; stroke-linecap: round"/>
   </g>
   <g id="patch_17">
    <path d="M 600.5592 263.570688 
L 684.9288 263.570688 
Q 698.9904 263.570688 698.9904 257.982336 
L 698.9904 218.242944 
Q 698.9904 212.654592 684.9288 212.654592 
L 600.5592 212.654592 
Q 586.4976 212.654592 586.4976 218.242944 
L 586.4976 257.982336 
Q 586.4976 263.570688 600.5592 263.570688 
z
" clip-path="url(#p76ceee57b3)" style="fill: #ecf8f6; stroke: #087c7e; stroke-width: 1.25; stroke-linejoin: miter"/>
   </g>
   <g id="patch_18">
    <path d="M 638.994869 180.62071 
Q 640.791404 197.756174 642.453873 213.612908 
" clip-path="url(#p76ceee57b3)" style="fill: none; stroke: #087c7e; stroke-width: 1.15; stroke-linecap: round"/>
    <path d="M 644.025884 209.426169 
L 642.453873 213.612908 
L 640.047689 209.843255 
z
" clip-path="url(#p76ceee57b3)" style="fill: #087c7e; stroke: #087c7e; stroke-width: 1.15; stroke-linecap: round"/>
   </g>
   <g id="patch_19">
    <path d="M 539.790497 179.663701 
Q 347.552872 253.583667 153.231182 189.314415 
" clip-path="url(#p76ceee57b3)" style="fill: none; stroke: #12305a; stroke-width: 1.15; stroke-linecap: round"/>
    <path d="M 156.400848 192.469288 
L 153.231182 189.314415 
L 157.656879 188.671606 
z
" clip-path="url(#p76ceee57b3)" style="fill: #12305a; stroke: #12305a; stroke-width: 1.15; stroke-linecap: round"/>
   </g>
   <g id="line2d_1">
    <path d="M 201.366 98.40384 
L 396.666 98.40384 
" clip-path="url(#p76ceee57b3)" style="fill: none; stroke: #9bb7dd; stroke-width: 1.2; stroke-linecap: square"/>
   </g>
   <g id="text_1">
    <text style="font-weight: 600; font-size: 7.8px; font-family: 'DejaVu Sans'; fill: #12305a" transform="translate(31.246078 145.42349)">SimBench</text>
    <text style="font-weight: 600; font-size: 7.8px; font-family: 'DejaVu Sans'; fill: #12305a" transform="translate(28.835391 154.785623)">candidates</text>
   </g>
   <g id="text_2">
    <text style="font-weight: 600; font-size: 7.8px; font-family: 'DejaVu Sans'; fill: #087c7e" transform="translate(136.404797 145.42349)">Binary</text>
    <text style="font-weight: 600; font-size: 7.8px; font-family: 'DejaVu Sans'; fill: #087c7e" transform="translate(126.923531 154.785623)">population</text>
   </g>
   <g id="text_3">
    <text style="font-weight: 600; font-size: 7.8px; font-family: 'DejaVu Sans'; fill: #12305a" transform="translate(240.999234 140.742728)">jDE</text>
    <text style="font-weight: 600; font-size: 7.8px; font-family: 'DejaVu Sans'; fill: #12305a" transform="translate(225.117703 150.104252)">parameter</text>
    <text style="font-weight: 600; font-size: 7.8px; font-family: 'DejaVu Sans'; fill: #12305a" transform="translate(232.737328 159.466385)">update</text>
   </g>
   <g id="text_4">
    <text style="font-weight: 600; font-size: 7.8px; font-family: 'DejaVu Sans'; fill: #12305a" transform="translate(317.171203 145.42349)">Two-strategy</text>
    <text style="font-weight: 600; font-size: 7.8px; font-family: 'DejaVu Sans'; fill: #12305a" transform="translate(339.986203 154.785014)">DE</text>
   </g>
   <g id="text_5">
    <text style="font-weight: 600; font-size: 7.8px; font-family: 'DejaVu Sans'; fill: #087c7e" transform="translate(422.601094 140.742424)">Decode +</text>
    <text style="font-weight: 600; font-size: 7.8px; font-family: 'DejaVu Sans'; fill: #087c7e" transform="translate(427.877672 150.104557)">budget</text>
    <text style="font-weight: 600; font-size: 7.8px; font-family: 'DejaVu Sans'; fill: #087c7e" transform="translate(430.285922 159.466689)">repair</text>
   </g>
   <g id="text_6">
    <text style="font-weight: 600; font-size: 7.8px; font-family: 'DejaVu Sans'; fill: #12305a" transform="translate(518.152406 145.42349)">Constraint</text>
    <text style="font-weight: 600; font-size: 7.8px; font-family: 'DejaVu Sans'; fill: #12305a" transform="translate(517.174359 154.785623)">dominance</text>
   </g>
   <g id="text_7">
    <text style="font-weight: 600; font-size: 7.8px; font-family: 'DejaVu Sans'; fill: #087c7e" transform="translate(624.340359 145.423185)">Pareto</text>
    <text style="font-weight: 600; font-size: 7.8px; font-family: 'DejaVu Sans'; fill: #087c7e" transform="translate(622.670063 154.785318)">archive</text>
   </g>
   <g id="text_8">
    <text style="font-weight: 600; font-size: 7.8px; font-family: 'DejaVu Sans'; fill: #d95f02" transform="translate(716.268938 145.42349)">Standard</text>
    <text style="font-weight: 600; font-size: 7.8px; font-family: 'DejaVu Sans'; fill: #d95f02" transform="translate(707.765109 154.785623)">hypervolume</text>
   </g>
   <g id="text_9">
    <text style="font-weight: 600; font-size: 9px; font-family: 'DejaVu Sans'; text-anchor: middle; fill: #12305a" x="296.6724" y="89.08992" transform="rotate(-0 296.6724 89.08992)">Constraint-aware search</text>
   </g>
   <g id="text_10">
    <text style="font-weight: 600; font-size: 8.5px; font-family: 'DejaVu Sans'; fill: #087c7e" transform="translate(636.335797 230.118324)">AC</text>
    <text style="font-weight: 600; font-size: 8.5px; font-family: 'DejaVu Sans'; fill: #087c7e" transform="translate(616.116422 240.320648)">power-flow</text>
    <text style="font-weight: 600; font-size: 8.5px; font-family: 'DejaVu Sans'; fill: #087c7e" transform="translate(618.847711 250.522972)">validation</text>
   </g>
  </g>
 </g>
 <defs>
  <clipPath id="p76ceee57b3">
   <rect x="2.16" y="2.16" width="781.2" height="310.464"/>
  </clipPath>
 </defs>
</svg>
